ply
format ascii 1.0
comment Created by Blender 2.76 (sub 0) - www.blender.org, source file: ''
element vertex 16
property float x
property float y
property float z
property float nx
property float ny
property float nz
element face 6
property list uchar uint vertex_indices
end_header
1.000000 0.000000 0.000000 0.000000 0.000000 -1.000000
0.000000 0.000000 0.000000 0.000000 0.000000 -1.000000
0.000000 1.000000 0.000000 0.000000 0.000000 -1.000000
1.000000 1.000000 0.000000 -0.000000 -0.000000 -1.000000
0.000000 0.000000 0.000000 0.000000 -0.954480 0.298275
1.000000 0.000000 0.000000 0.000000 -0.954480 0.298275
0.500000 0.500000 1.600000 0.000000 -0.954480 0.298275
0.000000 0.000000 0.000000 -0.954480 0.000000 0.298275
0.500000 0.500000 1.600000 -0.954480 0.000000 0.298275
0.000000 1.000000 0.000000 -0.954480 0.000000 0.298275
0.000000 1.000000 0.000000 0.000000 0.954480 0.298275
0.500000 0.500000 1.600000 0.000000 0.954480 0.298275
1.000000 1.000000 0.000000 0.000000 0.954480 0.298275
1.000000 0.000000 0.000000 0.954480 0.000000 0.298275
1.000000 1.000000 0.000000 0.954480 0.000000 0.298275
0.500000 0.500000 1.600000 0.954480 0.000000 0.298275
3 0 1 2
3 0 2 3
3 4 5 6
3 7 8 9
3 10 11 12
3 13 14 15
